# xmcd
#
# Track frame offsets:
#	182
#	36432
#	53927
#	84027
#	105097
#	126245
#	144617
#	167310
#	188590
#
# Disc length: 2835 seconds
#
# Revision: 2
# Processed by: cddbd v1.5.1PL2 Copyright (c) Steve Scherf et al.
# Submitted via: audiograbber 1.83.01
#
DISCID=670b1109
DTITLE=Louisiana Red - Blues For Ida B
DYEAR=1982
DGENRE=Blues
TTITLE0=Blues For Ida B
TTITLE1=This Little Letter
TTITLE2=I Wonder Why
TTITLE3=Grease Me Baby
TTITLE4=Love Me True
TTITLE5=Love Me Mama
TTITLE6=Little Boy
TTITLE7=Nothing But A Gypsy Man
TTITLE8=Chicken Licken
EXTD=Lousiana Red, Vocals and Electric or Acoustic Guitar\nRecorded at: Soto So
EXTD=und Studio, Chicago, May 1982
EXTT0=
EXTT1=
EXTT2=
EXTT3=
EXTT4=
EXTT5=
EXTT6=
EXTT7=
EXTT8=
PLAYORDER=
